/* XPM */
static char *ae91e960a18c4e58d4df87220c5819b9motYZoqGdnwquzSO[] = {
/* columns rows colors chars-per-pixel */
"32 32 7 1 ",
"  c #6ABE30",
". c #663931",
"X c #744233",
"o c #7D4735",
"O c #834B35",
"+ c #874D36",
"@ c white",
/* pixels */
"                                ",
"  .X .XoXo .X.XX. .X..X         ",
"  ..o..X.XX..X....O.X.XX X ...  ",
" X...X.XXX.....XX.o...........  ",
" ...oX.Xo.oX.XX.XX...XXX....... ",
" oX..XXXX.XX..oX.OX..o........  ",
" X...X.XXO.X..o.oXX..o..X..O..X ",
" .X....oX.XoXOoXX..X.o......... ",
" XX...Xoo.XXoXXXX..X.XX........ ",
"  +.....o.o...X...oo...XX..X... ",
" .Xo..o.XX.XXXXX.......XX....X. ",
" .X...oX.o......X...X...Xoo.... ",
" ..o..X..OX.o.o.oo.X.....X..X.. ",
" ......X..XX.XXoX...o.o..X....  ",
" X...X.X...X.XX.X..XX.X...X.... ",
"  ......XXX.XXX.XX.XXXXXo...... ",
" ..XX.....o.X....oXXXXo.+.o.XX. ",
" X.X..XoXX.....oXX..o...oX...X. ",
" ..........X.X..oXXX..XX....... ",
" .X.o.X...XX.X...XXo..o....o... ",
" ...X.....X.X.X...X.X.XoXXo.... ",
" ........XX.........X..XX....X. ",
" X...XX..XX...XXXXXX....X...X.. ",
" .X.XoX...XX.X.ooXo.XX.....X..  ",
"  ....o..+.XXX.Oo.o....X.X....  ",
" ..X.XXX.......X..X....XX..X... ",
" .......X....XO..X.XO.oX......X ",
"  ...X..XX...X..XXXX..XX...X... ",
"   X..oX.O+.X......X...XXX.X..  ",
"   ..XX   ....XXo.oX...X.....   ",
"    .X.    ....X  XXXX... ..X   ",
"                                "
};
