/* XPM */
static char *_6e319f82edc42a7ed56c831e0db650eZbs0WAaJ1nOUxB3R[] = {
/* columns rows colors chars-per-pixel */
"32 32 161 2 ",
"   c None",
".  c #391D0F",
"X  c #231619",
"o  c #2E1B1B",
"O  c #341D14",
"+  c #391F14",
"@  c #321E1B",
"#  c #16271D",
"$  c #1B291C",
"%  c #12331F",
"&  c #1A3B1E",
"*  c #25261C",
"=  c #29261A",
"-  c #3C2214",
";  c #382816",
":  c #37211B",
">  c #392219",
",  c #3A2A1B",
"<  c #3C301D",
"1  c #3B3E1E",
"2  c #151F21",
"3  c #2D1E23",
"4  c #261D23",
"5  c #0A2422",
"6  c #062E23",
"7  c #092B23",
"8  c #142720",
"9  c #1B2722",
"0  c #112E20",
"q  c #192D20",
"w  c #073324",
"e  c #0A3423",
"r  c #063B24",
"t  c #0A3C24",
"y  c #103922",
"u  c #232720",
"i  c #2F2025",
"p  c #302025",
"a  c #393222",
"s  c #472814",
"d  c #4C2A13",
"f  c #43271A",
"g  c #442818",
"h  c #582615",
"j  c #512D13",
"k  c #5F201C",
"l  c #512F1A",
"z  c #56241E",
"x  c #543017",
"c  c #5F3812",
"v  c #5F381C",
"b  c #5A3319",
"n  c #77290F",
"m  c #622919",
"M  c #68291A",
"N  c #7A2D12",
"B  c #423023",
"V  c #413F22",
"C  c #15481F",
"Z  c #194A1F",
"A  c #1A431C",
"S  c #14521F",
"D  c #175B1F",
"F  c #1B5C1C",
"G  c #29471F",
"H  c #225E16",
"J  c #2D5718",
"K  c #225E1A",
"L  c #34551E",
"P  c #1D641C",
"I  c #2C720F",
"U  c #327807",
"Y  c #32770D",
"T  c #3B740D",
"R  c #3A7A0D",
"E  c #2D6614",
"W  c #256C16",
"Q  c #2C6D13",
"!  c #22631B",
"~  c #236A1A",
"^  c #266316",
"/  c #326D13",
"(  c #2D7113",
")  c #347413",
"_  c #347810",
"`  c #3A7911",
"'  c #0C4424",
"]  c #0E4B23",
"[  c #154521",
"{  c #124D23",
"}  c #194E21",
"|  c #0F5123",
" . c #135322",
".. c #165C22",
"X. c #1C5D21",
"o. c #284123",
"O. c #555A0B",
"+. c #735E08",
"@. c #406F0E",
"#. c #427D0C",
"$. c #517F05",
"%. c #436010",
"&. c #606606",
"*. c #686507",
"=. c #796707",
"-. c #766A06",
";. c #6D7306",
":. c #6A7804",
">. c #77790D",
",. c #7D7605",
"<. c #6C611A",
"1. c #445724",
"2. c #971B13",
"3. c #972E0E",
"4. c #872813",
"5. c #942411",
"6. c #8A3113",
"7. c #AF2118",
"8. c #A22D13",
"9. c #BA2F1A",
"0. c #D51E1B",
"q. c #CC281A",
"w. c #D5211C",
"e. c #D93A23",
"r. c #E13122",
"t. c #81470B",
"y. c #805E08",
"u. c #915414",
"i. c #A35116",
"p. c #8C6508",
"a. c #877705",
"s. c #887F04",
"d. c #924D2B",
"f. c #BB4427",
"g. c #D45531",
"h. c #F35631",
"j. c #DE7A3A",
"k. c #E46E31",
"l. c #438105",
"z. c #4C8506",
"x. c #4F8803",
"c. c #45800C",
"v. c #49820A",
"b. c #528707",
"n. c #548A02",
"m. c #5A8D02",
"M. c #50870A",
"N. c #5E9101",
"B. c #668606",
"V. c #6D8602",
"C. c #639301",
"Z. c #6B9500",
"A. c #6E9900",
"S. c #739B00",
"D. c #7A9E00",
"F. c #789901",
"G. c #7FA000",
"H. c #819E00",
"J. c #82A100",
"K. c #82A200",
"L. c #B5823A",
/* pixels */
"                      [ T m.m.E '                               ",
"                      S m.D.S.m. .r K T / F r                   ",
"                ' F H  .v.Z.Z.T ] / n.A.A.m.Q ]                 ",
"              S T m.>.V F ) ` D F x.Z.J.G.D.m.P r               ",
"            ' ) C.a.k.g.a }  .t  .b.Z.J.J.D.C.Q '               ",
"             .z.N.s.q.w.4.%.F w ' #.Z.S.S.A.N.Q '               ",
"             .R C.S.y.t.+.m.( y t ! ` n.C.Z.#.P t               ",
"            ' P x.C.m.N.Z.l.P ' ' { } ~ R R ~ { t F '           ",
"              F W v.` _ R ~ .. .<.L.d.o. .S t t E m.F           ",
"              J 1.L X...F ] ' K i.h.e.m t t Z / C.x. .w         ",
"          w ^ u.j.f.1 F ' ' F I &.3.N G w r F ` c.~ t 5         ",
"          ] c.p.9.8.;.C.E | ~ U l.T ! ] 6 6 w | D S w           ",
"        5 F M.Z.-.,.H.D.b. .P ~ ~ P ] 6 ' P A < B k             ",
"        7  .#.A.S.D.S.Z.N.! t { ] r 6 ' Q C.B.6.7.2.h           ",
"        5 ' ! R n.m.z.R (  .u M z * S Q C.J.J.=.n c [           ",
"          7 ' ..W ( ~ P D ] M r.0.m H m.S.J.J.F.V.#. .          ",
"            5 e ] { S t ' ( *.5.5.O.F @.Z.Z.Z.Z.C.Y {           ",
"              2 9 5 8 5 { _ Z.;.:.m.W C $.N.Z.N.R P '           ",
"                  X - = ' ~ z.A.N.R P ' E ( R Q P ] 7           ",
"                    - s 0 ..W R ( P ' e F ..|  .t 6             ",
"                      f , & F F  .t q = $ # 7 7 5               ",
"                  i i i f ; $ % # = s + o 3 4                   ",
"                i i i i 3 - d - - d - 3 i i p                   ",
"                i i i i i 3 + d x - 3 i i i i                   ",
"                  i i i i i 3 l j O i i i i i i i               ",
"                  i i i i i 3 l d o i i i i i i i               ",
"              i i i i i i i @ j j O i i i i i i                 ",
"              i i i i i i 3 : b j O 3 i i i i i                 ",
"              i i i i i i 3 f v j . 3 i i i i i                 ",
"              i i i i i i 3 > d s @ 3 i i i i i i               ",
"                    i   i i 3 3 3 i i i i i i i i               ",
"                          i i i i i i i i i i i                 "
};
