/* XPM */
static char *_aaa0248e0d0441e93567fff79aef86esCpBQbUsGSPmFgPX[] = {
/* columns rows colors chars-per-pixel */
"32 32 167 2 ",
"   c #530600",
".  c #59100B",
"X  c #60130C",
"o  c #5A211F",
"O  c #773129",
"+  c #9C240E",
"@  c #BC310D",
"#  c #BB3619",
"$  c #BF381A",
"%  c #B73417",
"&  c #A63E27",
"*  c #AA3B26",
"=  c #B23F25",
"-  c #CD2D08",
";  c #DC340B",
":  c #D1380E",
">  c #DA3A0F",
",  c #C73717",
"<  c #C53C14",
"1  c #CA3B13",
"2  c #CA3E1E",
"3  c #D13711",
"4  c #D33C12",
"5  c #DB3D14",
"6  c #D93F1A",
"7  c #E03309",
"8  c #EF3709",
"9  c #E4390D",
"0  c #EB390B",
"q  c #F43809",
"w  c #E03911",
"e  c #E93E13",
"r  c #BD452A",
"t  c #AC4B39",
"y  c #B44B32",
"u  c #BD4D32",
"i  c #BD5232",
"p  c #B7573F",
"a  c #BC563E",
"s  c #C9421B",
"d  c #C3441E",
"f  c #DA411C",
"g  c #D1421E",
"h  c #F6471C",
"j  c #C44325",
"k  c #CB4323",
"l  c #C64924",
"z  c #CA4628",
"x  c #C44D2D",
"c  c #CA4B2A",
"v  c #D74522",
"b  c #D24A24",
"n  c #DB4924",
"m  c #D04E2B",
"M  c #DA4E2C",
"N  c #C6502D",
"B  c #CB522E",
"V  c #D4522D",
"C  c #C64F33",
"Z  c #C84E30",
"A  c #C35334",
"S  c #CE5232",
"D  c #C1553A",
"F  c #C3583A",
"G  c #CD5B3C",
"H  c #D05435",
"J  c #D85C3B",
"K  c #E74C25",
"L  c #E94F27",
"P  c #E3522C",
"I  c #E9532D",
"U  c #E25530",
"Y  c #F05A34",
"T  c #EC603C",
"R  c #B55942",
"E  c #BD5C43",
"W  c #B05F4A",
"Q  c #A0655D",
"!  c #B26651",
"~  c #BE6750",
"^  c #BB6F5B",
"/  c #B36952",
"(  c #BE7159",
")  c #AC7968",
"_  c #B27764",
"`  c #BD7A61",
"'  c #B47F6E",
"]  c #BE7F6C",
"[  c #C35C43",
"{  c #C95E43",
"}  c #C5634A",
"|  c #C96D54",
" . c #C86F58",
".. c #D56E50",
"X. c #C9715A",
"o. c #E76745",
"O. c #C07762",
"+. c #C27B62",
"@. c #C87B60",
"#. c #C97F69",
"$. c #BB8067",
"%. c #B38574",
"&. c #BA8370",
"*. c #B58E7F",
"=. c #BB8C7A",
"-. c #CE816B",
";. c #D68267",
":. c #CD8D77",
">. c #C88C79",
",. c #AA9185",
"<. c #AE9589",
"1. c #AC9A8E",
"2. c #B49484",
"3. c #BB9482",
"4. c #B59689",
"5. c #B79D8B",
"6. c #AD9C90",
"7. c #AFA499",
"8. c #A8A89F",
"9. c #B7A295",
"0. c #ADAEA6",
"q. c #B3AEA4",
"w. c #AEB4AC",
"e. c #A2B2AC",
"r. c #B4B2A6",
"t. c #BAB5A7",
"y. c #B2B2A8",
"u. c #BAB5AB",
"i. c #B5B9AD",
"p. c #BAB8AC",
"a. c #AFB8B0",
"s. c #B1BDB4",
"d. c #B9BDB3",
"f. c #CA9583",
"g. c #C99987",
"h. c #C49E8D",
"j. c #CA9D8B",
"k. c #C8A696",
"l. c #C9A99A",
"z. c #C1BAAF",
"x. c #ACC3BD",
"c. c #BFC6BD",
"v. c #C1C4BA",
"b. c #ACC7C1",
"n. c #ADCDC9",
"m. c #ACCAC6",
"M. c #B0C9C3",
"N. c #ADD1CD",
"B. c #ADDAD6",
"V. c #AEDCDA",
"C. c #B2D5D0",
"Z. c #B8D7D2",
"A. c #B1DAD6",
"S. c #B9D8D2",
"D. c #B2DEDB",
"F. c #ADE0DF",
"G. c #B3E1DE",
"H. c #B8E0DC",
"J. c #AFE4E3",
"K. c #AEE8E7",
"L. c #AFEEEE",
"P. c #B0E7E5",
"I. c #B2E9E7",
"U. c #B1ECEC",
"Y. c #AFEFF0",
"T. c #AFF1F1",
"R. c #B0F2F2",
/* pixels */
"L.L.L.L.L.L.L.L.L.L.L.L.L.L.L.L.L.L.L.L.L.L.L.L.L.L.L.L.L.L.L.L.",
"L.L.L.L.L.L.L.L.L.L.L.L.L.L.L.L.L.L.L.L.L.L.L.L.L.L.L.L.L.L.L.L.",
"L.L.L.L.L.L.L.L.L.L.L.L.L.L.L.L.L.L.L.L.L.L.L.L.L.L.L.L.L.L.L.L.",
"L.L.L.L.L.L.L.L.L.L.L.L.L.L.L.L.L.L.L.L.L.L.L.L.L.L.L.L.L.L.L.L.",
"L.L.L.L.L.L.L.L.L.L.L.L.L.L.L.L.L.L.L.L.L.L.L.L.L.L.L.L.L.L.L.L.",
"L.L.L.L.L.L.L.L.L.L.L.L.L.L.L.L.L.L.L.L.L.L.L.L.L.L.L.L.L.L.L.L.",
"L.L.L.L.L.Y.L.G.L.L.L.L.L.L.L.L.L.L.L.L.L.L.L.L.L.L.L.L.L.L.L.L.",
"L.L.L.Y.T.Z.3.a d.T.L.L.L.L.L.L.L.L.L.L.L.L.L.L.L.L.L.L.L.L.L.L.",
"L.L.L.Z.3.a ! W 3.L.L.L.L.L.L.L.L.L.L.L.L.L.L.L.L.L.L.L.L.L.L.L.",
"L.L.p.[ ! 0.K.N.~ G.L.L.Y.L.L.L.L.L.L.L.L.L.L.L.L.L.L.L.L.L.L.L.",
"L.D.E 7.J.T.T.V.p d.T.D.M.Y.L.U.G.L.U.D.P.L.L.L.L.L.L.L.L.L.L.L.",
"L.D.^ V.T.L.T.J._ =.J.l.-.I.Y.G.O.N.c.{ 9.T.L.L.L.L.L.L.L.L.L.L.",
"L.U.D.L.L.L.d.;.J H ..X.C v.T.B.D 1.k.E ] I.L.L.L.L.L.L.L.L.L.L.",
"L.L.L.L.Y.p.o.j t * M H R #.U.B.A 2.l._  .H.T.Y.Y.Y.Y.L.L.L.L.L.",
"L.L.L.L.t.o.r O Q o + v y u z.b.A =.>.1. .S.A.V.A.A.B.D.L.L.L.L.",
"L.L.Y.D.V h # X .   # f 1 $ S m j E [ w.} | A i B i A F r.L.L.L.",
"L.L.L.A.` 9 q 7 ; ; K 3 k j , I z % 2 x x M P 4 I < M U F C.Y.L.",
"L.L.V.` :.c 6 8 0 9 n r y.y.j f k = c g Z M Y 5 P b s T s 5.T.L.",
"L.L.L.a.2.9.y.( x F } 3.T.T.y.u c 4.s.7.G 6 e < 5 5 < e 1 3.T.L.",
"L.L.L.T.T.T.T.J.B.F.4.j.L.L.L.m.} u.T.V.G v > < 5 4 < 9 < 5.T.L.",
"L.L.L.L.L.L.L.L.Y.T.Z.X.B.L.L.Y.%.h.T.L.h.k @ < > < 1 4 i C.Y.L.",
"L.L.L.L.L.L.L.L.L.L.G.X.n.T.L.T.*.g.L.T.C.} ! i N i x i r.L.L.L.",
"L.L.L.L.L.L.L.L.L.L.L.f.2.T.L.T.2.[ B.T.B.[ q.V.A.A.B.D.L.L.L.L.",
"L.L.L.L.L.L.L.L.L.J.,.y <.T.L.L.%.D B.R.e.& ,.T.Y.Y.Y.L.L.L.L.L.",
"L.L.L.L.L.L.L.L.L.J.0.1.V.L.L.V.) w.L.T.x.n.J.L.L.L.L.L.L.L.L.L.",
"L.L.L.L.L.L.L.L.L.L.T.T.L.L.L.L.J.T.L.L.T.T.L.L.L.L.L.L.L.L.L.L.",
"L.L.L.L.L.L.L.L.L.L.L.L.L.L.L.L.L.L.L.L.L.L.L.L.L.L.L.L.L.L.L.L.",
"L.L.L.L.L.L.L.L.L.L.L.L.L.L.L.L.L.L.L.L.L.L.L.L.L.L.L.L.L.L.L.L.",
"L.L.L.L.L.L.L.L.L.L.L.L.L.L.L.L.L.L.L.L.L.L.L.L.L.L.L.L.L.L.L.L.",
"L.L.L.L.L.L.L.L.L.L.L.L.L.L.L.L.L.L.L.L.L.L.L.L.L.L.L.L.L.L.L.L.",
"L.L.L.L.L.L.L.L.L.L.L.L.L.L.L.L.L.L.L.L.L.L.L.L.L.L.L.L.L.L.L.L.",
"L.L.L.L.L.L.L.L.L.L.L.L.L.L.L.L.L.L.L.L.L.L.L.L.L.L.L.L.L.L.L.L.",
};
