/* XPM */
static char *_3ec068ac20947a693c422b2f910745fkUablXz8YiJx9Gq4[] = {
/* columns rows colors chars-per-pixel */
"32 32 174 2 ",
"   c None",
".  c #232222",
"X  c #282626",
"o  c #2D2625",
"O  c #292728",
"+  c #2D2C2B",
"@  c #2D2C2C",
"#  c #2F2D2D",
"$  c #302E2E",
"%  c #312F2F",
"&  c #322F2F",
"*  c #323030",
"=  c #333131",
"-  c #343232",
";  c #353333",
":  c #363434",
">  c #373434",
",  c #373535",
"<  c #383535",
"1  c #383636",
"2  c #393636",
"3  c #3A3737",
"4  c #3B3838",
"5  c #3B3939",
"6  c #3C3939",
"7  c #433F3F",
"8  c #6B382F",
"9  c #58403A",
"0  c #63483B",
"q  c #7A483F",
"w  c #434141",
"e  c #444141",
"r  c #454242",
"t  c #494746",
"y  c #4A4747",
"u  c #4B4747",
"i  c #4B4848",
"p  c #4C4A49",
"a  c #4D4A4A",
"s  c #4E4B4B",
"d  c #4F4D4E",
"f  c #564C49",
"g  c #504C4C",
"h  c #504D4C",
"j  c #514E4E",
"k  c #514F4E",
"l  c #524E4E",
"z  c #584C4B",
"x  c #534F50",
"c  c #535050",
"v  c #545050",
"b  c #545151",
"n  c #555151",
"m  c #575353",
"M  c #595656",
"N  c #5A5756",
"B  c #5C5858",
"V  c #775B50",
"C  c #775F54",
"Z  c #63605F",
"A  c #666262",
"S  c #666363",
"D  c #686564",
"F  c #696564",
"G  c #696666",
"H  c #6B6666",
"J  c #6F6765",
"K  c #6D6968",
"L  c #6D6A69",
"P  c #6E6B6A",
"I  c #6F6C6B",
"U  c #706D6D",
"Y  c #766F6D",
"T  c #747070",
"R  c #777372",
"E  c #787373",
"W  c #787574",
"Q  c #7A7575",
"!  c #7B7575",
"~  c #7A7675",
"^  c #7B7776",
"/  c #7C7878",
"(  c #7F7B7A",
")  c #835D4B",
"_  c #8B5F4A",
"`  c #975A47",
"'  c #9D5E4A",
"]  c #8A655C",
"[  c #A76147",
"{  c #AE6547",
"}  c #977167",
"|  c #858180",
" . c #868281",
".. c #898484",
"X. c #898584",
"o. c #8B8686",
"O. c #8C8887",
"+. c #8D8988",
"@. c #8E8A89",
"#. c #8F8B8A",
"$. c #908B8A",
"%. c #968B8A",
"&. c #948C8A",
"*. c #928E8D",
"=. c #938E8D",
"-. c #94908F",
";. c #969090",
":. c #969291",
">. c #989392",
",. c #9A9694",
"<. c #9B9796",
"1. c #9E9898",
"2. c #BD9584",
"3. c #A09C9A",
"4. c #A29E9C",
"5. c #A39E9D",
"6. c #A4A09E",
"7. c #A7A3A1",
"8. c #A8A3A3",
"9. c #A9A5A3",
"0. c #A9A5A4",
"q. c #ABA6A5",
"w. c #ACA7A6",
"e. c #ADA8A6",
"r. c #ADA8A7",
"t. c #B6B1AF",
"y. c #B9B1AE",
"u. c #B6B1B0",
"i. c #B8B3B1",
"p. c #B9B3B2",
"a. c #B9B5B3",
"s. c #BCB7B5",
"d. c #BCB7B6",
"f. c #BEB9B8",
"g. c #BFBBB9",
"h. c #C0BBBA",
"j. c #C1BCBB",
"k. c #C2BDBB",
"l. c #C5C0BF",
"z. c #C8C3C1",
"x. c #C9C3C2",
"c. c #CBC6C4",
"v. c #CCC7C5",
"b. c #CDC7C6",
"n. c #CDC8C6",
"m. c #CEC9C7",
"M. c #D1CCCA",
"N. c #D4CECD",
"B. c #D4CFCD",
"V. c #D4D0CE",
"C. c #D6D1CF",
"Z. c #D8D3D1",
"A. c #DAD5D3",
"S. c #DBD5D3",
"D. c #DED8D7",
"F. c #E0DBD9",
"G. c #E1DBD9",
"H. c #E3DEDC",
"J. c #E4DEDC",
"K. c #E5E0DE",
"L. c #E6E0DE",
"P. c #E7E1DF",
"I. c #E9E3E2",
"U. c #EBE5E3",
"Y. c #ECE6E4",
"T. c #EEE8E6",
"R. c #EEE9E7",
"E. c #EFE9E7",
"W. c #F0EAE8",
"Q. c #F1EBE9",
"!. c #F2EBE9",
"~. c #F2ECE9",
"^. c #F3EDEB",
"/. c #F4EEEC",
/* pixels */
"                                                                ",
"                                                                ",
"                                                                ",
"                                                                ",
"                                                                ",
"                                                                ",
"                                                                ",
"                                                                ",
"                                                                ",
"                                                                ",
"                    + @             @                           ",
"              B <.k.9.6.a.>.w . = t O.| P S                     ",
"            k f.C.x.L.Q.Y.p.s 3 O.b.J.L.L.B.:.                  ",
"            Q H.@.7 F m.Q.( : 3 c b.^.Y.t.=.f.|                 ",
"            I Y.m.v : 5.E.Q : 3 3 5.^.A.v : 3.h.R               ",
"            F H.Q.c.5.J.D.v : 3 6 r.Q.Y.u.k R m.>.f             ",
"            U m.Q.I.J.E.U.@.k k E G.Q.Q.Z.M t $.Q V C           ",
"            Q r./.B.8.k.C.G.M.b.l.M.E.E.-.- M R ..Y y.          ",
"          | I w.E.%.q ` ] &.1.:.Q @.E.G.Z $ ..v i k q.S         ",
"            t q.A.z ' [ { 9 d x   P L.m.v : F e 5 5 5.@.        ",
"              =.q.s ) 0 _           d.p.s     X $ P x.<.        ",
"              ..@.$                 7.d.e       = J 2.}         ",
"              F :.5                 ( =.-       O o 8           ",
"                e 3                 : s                         ",
"                                                                ",
"                                                                ",
"                                                                ",
"                                                                ",
"                                                                ",
"                                                                ",
"                                                                ",
"                                                                "
};
