/* XPM */
static char *f7796a22d3934a7ab7ecea8f02b19420sWmpacWsmG96waUS[] = {
/* columns rows colors chars-per-pixel */
"32 32 147 2 ",
"   c None",
".  c #16182E",
"X  c #1C192F",
"o  c #15162D",
"O  c #1D1E32",
"+  c #261D34",
"@  c #1F2033",
"#  c #222034",
"$  c #2A2538",
"%  c #2A2236",
"&  c #312337",
"*  c #3C243A",
"=  c #34253A",
"-  c #4B1E3C",
";  c #41233C",
":  c #4B223E",
">  c #45283C",
",  c #48283D",
"<  c #3B2D40",
"1  c #213C46",
"2  c #2F3344",
"3  c #313442",
"4  c #3C3341",
"5  c #4D2540",
"6  c #502540",
"7  c #582E46",
"8  c #423944",
"9  c #523247",
"0  c #523F4D",
"q  c #652746",
"w  c #6F2749",
"e  c #6E2849",
"r  c #73294A",
"t  c #7C294C",
"y  c #6B334C",
"u  c #73354F",
"i  c #773650",
"p  c #7A3750",
"a  c #2A464A",
"s  c #2E4B4B",
"d  c #304E4D",
"f  c #2C524E",
"g  c #3C7C66",
"h  c #357D6B",
"j  c #387B6A",
"k  c #5F4452",
"l  c #6D4E5B",
"z  c #734F5D",
"x  c #645555",
"c  c #60565B",
"v  c #6B5B58",
"b  c #72515D",
"n  c #58615F",
"m  c #596864",
"M  c #5C7A6E",
"N  c #606164",
"B  c #6A766C",
"V  c #647A6D",
"C  c #68796D",
"Z  c #71786F",
"A  c #70746C",
"S  c #842A4E",
"D  c #8A294F",
"F  c #872E51",
"G  c #8B2B50",
"H  c #833552",
"J  c #853A54",
"K  c #933054",
"L  c #9C3759",
"P  c #9C395A",
"I  c #A23559",
"U  c #A43B5C",
"Y  c #A93E5E",
"T  c #864B5E",
"R  c #A6425F",
"E  c #AA405F",
"W  c #AA7D5B",
"Q  c #895E69",
"!  c #825A65",
"~  c #9A5568",
"^  c #9A5A6B",
"/  c #945969",
"(  c #AD4260",
")  c #B54664",
"_  c #B94564",
"`  c #B74865",
"'  c #A25367",
"]  c #82626A",
"[  c #886768",
"{  c #95676F",
"}  c #96726F",
"|  c #956570",
" . c #9D6C74",
".. c #A66262",
"X. c #A26F77",
"o. c #B46A78",
"O. c #B96D7A",
"+. c #A9747A",
"@. c #C1535F",
"#. c #C35F5B",
"$. c #C96858",
"%. c #D27552",
"&. c #E17C75",
"*. c #3D856C",
"=. c #3D9271",
"-. c #40856B",
";. c #418F70",
":. c #429170",
">. c #509373",
",. c #669A79",
"<. c #769477",
"1. c #FFD331",
"2. c #A68277",
"3. c #A68478",
"4. c #B4927D",
"5. c #BA977E",
"6. c #B79A7F",
"7. c #DC864C",
"8. c #DEB940",
"9. c #D5B443",
"0. c #E7A243",
"q. c #E8A442",
"w. c #C98379",
"e. c #E68078",
"r. c #E5907F",
"t. c #BC7E83",
"y. c #BE9683",
"u. c #88A783",
"i. c #84A380",
"p. c #C8878B",
"a. c #CC8A8D",
"s. c #C39885",
"d. c #E89281",
"f. c #E79A85",
"g. c #C0A184",
"h. c #D0A78B",
"j. c #D8A990",
"k. c #ECAC8E",
"l. c #E9A68B",
"z. c #E0A695",
"x. c #E1AB96",
"c. c #EDAF90",
"v. c #E3B295",
"b. c #E9B698",
"n. c #E8B795",
"m. c #F0C79B",
"M. c #F3C99D",
/* pixels */
"                          # # %                                 ",
"                          O u y                                 ",
"                      # # u ) ) y # #     # #                   ",
"                    O i R ( ) ) ( R u O 7 p O                   ",
"                  O i ) ) ) ) ) ) ` P H ( J O                   ",
"                  O J ` ) ) ) ) ) U L Y r =                     ",
"                  O J ` ) ) ) ) ) ) U L E u O                   ",
"          @ @ @ @ O J ` ) ) ) ) ) ) ) ( ` ( i O @ @ @           ",
"        # q e e e e F E ) ) ) ) ) ) ) ` Y K G e e e q #         ",
"        # t G G D D D G K K K K K K K K G D D G G G t #         ",
"          * ; * ^ O.o.o.o.o.o.o.o.o.o.o.o.o.O.^ * ; *           ",
"                0 +.a.p.a.a.p.a.a.p.p.p.p.a.+.0                 ",
"                . 3.b.v.[ | a.Q } v.v.x.x.v.2..                 ",
"                . ..e.c.6.y.x.4.g.k.&.f.m.M.4.o                 ",
"                l w.d.c.M.M.m.M.M.k.r.l.m.M.h.l                 ",
"              X X.z.z.z.z.z.z.z.z.z.z.z.z.z.z.X.O               ",
"              f c b b z z z z z z z z b b b b k O               ",
"            s n 9 - 2 1 1 1 1 1 1 1 1 3 : : < 1 a s             ",
"          s *.T I I m h j j j j j j h N I I T h *.-.d s         ",
"      a # g :.~ ) ` C :.:.:.:.:.:.:.:.A _ ) / :.:.;.=.*.a       ",
"    O <.3 g =.W %.@.C =.:.:.:.:.:.:.=.B @.%.W =.;.>.i.u.<.O     ",
"  x v v.8 g V 8.1.$.] B B B B B B B C ] %.1.9.M ;.,.n.5.n.v x   ",
"$ j.b.v.4 g ' 7.0.#.) ` ` ` ` ` _ ` ` ) $.q.7.~ =.,.s.4 v.b.j.$ ",
"+ t.p.p.< m ' ) ) ) ) ) ) ) ) ) ) ) ) ) ) ) ) ' V Z ! < p.p.t.+ ",
"+ {  . .< H Y ) ) ) ) ) ) ) ) ) ) ) ) ) ) ) ) ) Y H O <  . .{ + ",
"  O O O   O r U ) ) ) ) ) ) ) ) ) ) ) ) ) E ( U w O     O O O   ",
"          # q D U ( ( ( ( ( ( ( ( ( ( ( P D G G r #             ",
"            @ r G G G G G t r r S G G G G G G D q #             ",
"            # q D G G G G 5 @ @ 6 D G G G G D q @               ",
"              # q S S S D :       : D S S S q @                 ",
"                # * > > , &       & > > > > * #                 ",
"                  # * > > &         & > > * #                   "
};
