/* XPM */
static char *_63169aa637d478ad6718e68bb10edd9HBx2trbtVfen8e0C[] = {
/* columns rows colors chars-per-pixel */
"32 32 180 2 ",
"   c None",
".  c #1D1C1D",
"X  c #202020",
"o  c #212020",
"O  c #232222",
"+  c #242323",
"@  c #262525",
"#  c #272525",
"$  c #2A2929",
"%  c #2D2C2B",
"&  c #362D2D",
"*  c #323030",
"=  c #333030",
"-  c #323131",
";  c #333131",
":  c #343232",
">  c #353232",
",  c #353333",
"<  c #363333",
"1  c #373535",
"2  c #383535",
"3  c #383636",
"4  c #393636",
"5  c #393737",
"6  c #3A3737",
"7  c #3B3838",
"8  c #3C3939",
"9  c #3E3B3B",
"0  c #3E3C3C",
"q  c #3F3C3C",
"w  c #403533",
"e  c #403D3D",
"r  c #423E3D",
"t  c #413F3E",
"y  c #543E34",
"u  c #523F3B",
"i  c #633D34",
"p  c #434040",
"a  c #474343",
"s  c #474444",
"d  c #484544",
"f  c #494646",
"g  c #4A4747",
"h  c #4F4C4B",
"j  c #524E4E",
"k  c #535050",
"l  c #555151",
"z  c #555252",
"x  c #575454",
"c  c #585454",
"v  c #5A5756",
"b  c #5B5757",
"n  c #5B5858",
"m  c #5C5959",
"M  c #5C5A59",
"N  c #5D5A5A",
"B  c #5E5A5A",
"V  c #694B48",
"C  c #7C5341",
"Z  c #6E5C56",
"A  c #605D5C",
"S  c #63605F",
"D  c #646160",
"F  c #686564",
"G  c #696564",
"H  c #696565",
"J  c #6B6867",
"K  c #6C6968",
"L  c #6E6A69",
"P  c #6D6B6A",
"I  c #6E6B6A",
"U  c #73706F",
"Y  c #747070",
"T  c #757171",
"R  c #767171",
"E  c #777372",
"W  c #787170",
"Q  c #797574",
"!  c #797575",
"~  c #7E7A79",
"^  c #7F7B7A",
"/  c #9E523C",
"(  c #A5573D",
")  c #8A5441",
"_  c #855B4F",
"`  c #936C5D",
"'  c #A0664B",
"]  c #AF745A",
"[  c #837A76",
"{  c #807B7B",
"}  c #807C7B",
"|  c #807C7C",
" . c #827F7E",
".. c #868180",
"X. c #8A8786",
"o. c #8C8887",
"O. c #8F8B8A",
"+. c #948684",
"@. c #988882",
"#. c #908C8B",
"$. c #918D8C",
"%. c #928F8D",
"&. c #938F8E",
"*. c #969190",
"=. c #989493",
"-. c #999594",
";. c #9B9796",
":. c #9D9998",
">. c #9E9A99",
",. c #A59896",
"<. c #A09B9A",
"1. c #A29D9C",
"2. c #A39F9E",
"3. c #A59F9E",
"4. c #A5A09F",
"5. c #A7A2A1",
"6. c #A9A2A0",
"7. c #A9A4A3",
"8. c #AAA5A3",
"9. c #A9A5A4",
"0. c #ACA6A5",
"q. c #ACA7A6",
"w. c #ACA8A7",
"e. c #ADA8A7",
"r. c #AEA9A8",
"t. c #AFABA9",
"y. c #B0ACAA",
"u. c #B5B1AF",
"i. c #B8B3B2",
"p. c #BAB4B3",
"a. c #BAB5B3",
"s. c #BCB7B6",
"d. c #BEB9B7",
"f. c #C7B7AF",
"g. c #C0BBB9",
"h. c #C4BEBD",
"j. c #C6C0BF",
"k. c #C7C2C0",
"l. c #C8C2C1",
"z. c #CAC5C4",
"x. c #CBC6C5",
"c. c #CBC7C5",
"v. c #CCC6C5",
"b. c #CDC7C6",
"n. c #CEC8C7",
"m. c #CEC9C7",
"M. c #CFC9C7",
"N. c #D1CCCA",
"B. c #D3CECC",
"V. c #D4CECD",
"C. c #D6D0CF",
"Z. c #D7D1CF",
"A. c #D7D2D0",
"S. c #D8D2D0",
"D. c #D8D2D1",
"F. c #D9D3D1",
"G. c #DAD4D2",
"H. c #DAD4D3",
"J. c #DAD5D3",
"K. c #DED8D7",
"L. c #DED9D7",
"P. c #E1DBD9",
"I. c #E1DCDA",
"U. c #E2DDDB",
"Y. c #E3DDDB",
"T. c #E4DEDC",
"R. c #E4DFDD",
"E. c #E5DFDD",
"W. c #E8E2E0",
"Q. c #EAE4E2",
"!. c #EAE5E3",
"~. c #ECE7E5",
"^. c #EDE7E5",
"/. c #EEE8E6",
"(. c #EFE9E7",
"). c #F0EAE8",
"_. c #F1EBE9",
"`. c #F2ECEA",
"'. c #F3EDEB",
"]. c #F4EEEC",
/* pixels */
"                                                                ",
"                                                                ",
"                                                                ",
"                                                                ",
"                                                                ",
"                                                                ",
"                                                                ",
"                                                                ",
"                                                                ",
"                                                                ",
"                  P 0 M P f O O . % G s ;     Z @.6.            ",
"            z =.n.P.n.B.n.;., ; M X.c.g.8.w.%.*.P y.^           ",
"             .R.<.4.D._.Y.E 6 f q.R.^.n.k.s.^ k v h r.          ",
"            5.R.G , A H.K.j 6 6 M Y./.Q r E u.D 8 0 w.f.        ",
"            >.].k.v A H.b.f 6 6 a b._.O.f 7 G 1.7 6 [ ` i       ",
"            #./._.Z.D.'.i.8 , , S P._.W.d.r $ z ; + r w         ",
"             .Y._.H.K.!.R.;.Q } p.^././.q.v O                   ",
"          %.P V._.3.+.,.h.Z.V.j.q.N._.A...^                     ",
"           .n D.c.V / ( _ W { E v r.'.p.M                       ",
"            x l.9.u ] ) ' &       %.!.>.p                       ",
"              8.E     y C         G c.o.6                       ",
"              1.J @                 d.#.;                       ",
"              G U                   E M                         ",
"              @ ,                   1 s                         ",
"                                                                ",
"                                                                ",
"                                                                ",
"                                                                ",
"                                                                ",
"                                                                ",
"                                                                ",
"                                                                "
};
