/* XPM */
static char *_5ebf0e054814dabc2348bcdcc11724b2FRYgKGfL3n9Ecnz[] = {
/* columns rows colors chars-per-pixel */
"32 32 201 2 ",
"   c #2C261B",
".  c #342B1B",
"X  c #2B2925",
"o  c #342D22",
"O  c #343334",
"+  c #3D3634",
"@  c #363124",
"#  c #433116",
"$  c #601C20",
"%  c #463B29",
"&  c #453A28",
"*  c #513F25",
"=  c #6F3335",
"-  c #674A1D",
";  c #4D412C",
":  c #574527",
">  c #4A4338",
",  c #564930",
"<  c #67512E",
"1  c #785829",
"2  c #695637",
"3  c #7C643D",
"4  c #3F3D41",
"5  c #4F4F56",
"6  c #5C5D5E",
"7  c #464249",
"8  c #635C53",
"9  c #756243",
"0  c #796748",
"q  c #746B58",
"w  c #5B5563",
"e  c #645F68",
"r  c #6A656D",
"t  c #746E61",
"y  c #696571",
"u  c #736C7A",
"i  c #7C7B7E",
"p  c #BD241D",
"a  c #BE3621",
"s  c #C33D1E",
"d  c #C92727",
"f  c #A35C38",
"g  c #9C6C2A",
"h  c #836B3B",
"j  c #987637",
"k  c #856628",
"l  c #A27427",
"z  c #B57C24",
"x  c #A97B32",
"c  c #C05E23",
"v  c #D97728",
"b  c #C96B21",
"n  c #856C41",
"m  c #886E40",
"M  c #8B7247",
"N  c #967947",
"B  c #CE5F51",
"V  c #D06D5C",
"C  c #D96E47",
"Z  c #EF7D75",
"A  c #E3736B",
"S  c #BA862B",
"D  c #B98A3A",
"F  c #AE8831",
"G  c #CA8C28",
"H  c #D28C27",
"J  c #D5952B",
"K  c #C28834",
"L  c #CC9939",
"P  c #D49B36",
"I  c #DFA12F",
"U  c #DCA537",
"Y  c #E6AA38",
"T  c #F3AC36",
"R  c #978459",
"E  c #9C834D",
"W  c #A68648",
"Q  c #BC934D",
"!  c #A68855",
"~  c #B48F50",
"^  c #BB9452",
"/  c #B79150",
"(  c #A29258",
")  c #98836C",
"_  c #998777",
"`  c #B39463",
"'  c #A58D7C",
"]  c #A58F76",
"[  c #A7917B",
"{  c #AB906F",
"}  c #B7A679",
"|  c #A6A176",
" . c #D49249",
".. c #D9A249",
"X. c #CEA756",
"o. c #DCAD5B",
"O. c #D9A651",
"+. c #DFB05F",
"@. c #E8B148",
"#. c #F4B941",
"$. c #F5BB45",
"%. c #E3B559",
"&. c #F3BB5C",
"*. c #C9A465",
"=. c #D5AC67",
"-. c #DDB269",
";. c #C3A678",
":. c #D9B474",
">. c #E4B461",
",. c #E8B662",
"<. c #EBB963",
"1. c #EABA6B",
"2. c #F2BF66",
"3. c #F1BF69",
"4. c #E1B679",
"5. c #FFCF4A",
"6. c #FFD049",
"7. c #F3C15C",
"8. c #F6C167",
"9. c #FAC365",
"0. c #F5C26D",
"q. c #FCC66A",
"w. c #FFC86A",
"e. c #F6D36B",
"r. c #F6C372",
"t. c #FFD274",
"y. c #F7DA77",
"u. c #FFE476",
"i. c #787381",
"p. c #847F86",
"a. c #96888B",
"s. c #94889A",
"d. c #878096",
"f. c #B19B91",
"g. c #A28697",
"h. c #B5B187",
"j. c #BBA491",
"k. c #9C94A4",
"l. c #9E99A2",
"z. c #AC9EB4",
"x. c #A599B4",
"c. c #A499A6",
"v. c #A8A1A8",
"b. c #B7ACA9",
"n. c #BCB5AD",
"m. c #B3A7B5",
"M. c #ACA7B4",
"N. c #CEAE83",
"B. c #C6AC82",
"V. c #D5B286",
"C. c #C3B195",
"Z. c #CAB89D",
"A. c #C7B19E",
"S. c #DAB894",
"D. c #C4A395",
"F. c #E8BE83",
"G. c #D6BFAD",
"H. c #C5B8B7",
"J. c #CDB7A9",
"K. c #EBC083",
"L. c #F5DC91",
"P. c #F4E58E",
"I. c #DFC5AF",
"U. c #C9C2BF",
"Y. c #DEC4B2",
"T. c #FFFAA8",
"R. c #B9ACC7",
"E. c #BFB0CC",
"W. c #C2B5CE",
"Q. c #C3B5D6",
"!. c #C9BCD4",
"~. c #C7B9DB",
"^. c #C3B6DA",
"/. c #CDBEE4",
"(. c #C3C0CA",
"). c #D8CCCA",
"_. c #D8D4CC",
"`. c #CCC5D4",
"'. c #CEC6D7",
"]. c #D1C8D7",
"[. c #DBD4DE",
"{. c #DBD3D9",
"}. c #CFC0E4",
"|. c #D3C3E9",
" X c #D6C9E3",
".X c #DDD5E4",
"XX c #DDD6E6",
"oX c #DED1F1",
"OX c #DCCCF4",
"+X c #E2DCE6",
"@X c #E4DDEA",
"#X c #E0D7ED",
"$X c #E7DEF2",
"%X c #E5E0EC",
"&X c #EBE5EE",
"*X c #EBEAED",
"=X c #EDE9F2",
"-X c #ECE5F7",
";X c #F1EDFA",
":X c #F9F7FC",
">X c #FCFCFD",
/* pixels */
"t.w.w.w.w.w.w.w.w.w.w.w.w.w.w.w.w.w.w.w.w.w.w.w.w.w.w.w.w.w.w.w.",
"t.w.w.w.w.w.w.w.w.w.w.w.w.w.w.w.w.w.w.w.w.w.w.w.w.w.w.w.w.w.w.w.",
"t.w.w.w.w.w.w.w.w.w.w.w.w.w.w.w.w.w.w.w.w.w.w.w.w.w.w.w.w.w.w.w.",
"t.w.w.w.w.w.w.w.w.w.w.w.w.w.w.w.w.w.w.w.w.w.w.w.w.w.w.w.w.w.w.w.",
"t.w.w.K.S.S.F.0.w.w.w.w.w.w.w.w.w.w.w.w.w.w.w.q.F.N.} :.w.w.w.w.",
"t.w.3.H.+X@X+X).S.r.w.w.w.w.w.w.w.w.w.w.w.q.F.G.[.[.[.U.:.w.w.w.",
"t.w.<.n.%X.X+X@X'.] 2.w.w.w.w.*.=.w.w.w.0.I.[.+X@X@X%X+X;.w.w.w.",
"t.w.<.b.&X&XXX-Xv.6 ) r.w.w.>.2 q 1.w.0.Y.;X:X&X+X+X=XH.=.w.w.w.",
"t.w.w.N..X@X=X'.r (.y j.0.w.! ^ N ! q.Y.-X;X@X&X:X+X%XC.8.w.w.w.",
"t.w.w.3.Z.XX#Xl.p.XXd.m.Q D 3 2.+.9 V.$X$X`.[.@X=X%X_.:.w.w.w.w.",
"t.w.w.w.3.;.v.k.W.OX_ E e.W F @.w.[ Q.oXl.4 O k.!.v.*.w.w.w.w.w.",
"t.w.w.w.w.q.J.].M.g. .P.T.y.#.c K D.Q.u 4 s.w X 7 u a.=.w.w.w.w.",
"t.w.w.w.w.r.H.+Xv.= V L.T.e.C A s g + r x.}.x.X r R.|.' 8.w.w.w.",
"t.w.w.w.w.w.:.b.5 $ B 7.u.$.B Z p H 1 z.~.R.x.i *X].|.z.*.w.w.w.",
"t.w.w.w.w.8.>.M X f a #.6.#.d d v S * y c.m.f.n.>X&X!./.) 2.w.w.",
"t.w.w.w.-._ 8 X 3 w...Y 5.T b v T l ; X , =.q.:._.>X]./.z.*.w.w.",
"t.w.w.q.G.*X`.e > ,.9.L I G G S l z K W   , ^ w.:._.=X!.^.{ w.w.",
"t.w.w.r.{.:X!.E.i.` <.< g @.I P L P J D ~ 3 % ,.w.:.).+X}.a.<.w.",
"t.w.w.N.*X.XW.OX^.;.N ; o.D h q t > # 1 O.>.% >.w.w.4.Z. Xs.-.w.",
"t.w.q.A.=X!.|./.[ 2./ % x # R h.h.( k # < M > ,.w.w.w.3.C.m.` w.",
"t.w.1.U.*X}./.' <.w.,.; x D %.} | j l G 1 9 R w.w.w.w.w.0.] ! w.",
"t.w.N.+X X~.' <.w.w./ % K F . o @     - g 9 0 8.w.w.w.w.w.8.2.w.",
"t.w.B..XQ.' <.w.w.9., m &.- : U @.Y z . N N > o.w.w.w.w.w.w.w.w.",
"t.3.H.!.' <.w.w.<.m < <.w...G T T H H j <.<.2 M w.w.w.w.w.w.w.w.",
"t.<.a.' <.w.w.w.N O N w.w.w...X.y.J j <.w.w.^ & ^ w.w.w.w.w.w.w.",
"t.2.! <.w.w.w.,.% W 8.w.w.w.w.%.y.D %.w.w.w.w.3 h w.w.w.w.w.w.w.",
"t.w.w.w.w.w.w.2.9 n 8.w.w.w.w.9.X.Q w.w.w.w.,.2 / w.w.w.w.w.w.w.",
"t.w.w.w.w.w.w.w.2.>.w.w.w.w.w.w.o.<.w.w.w.w.X.^ w.w.w.w.w.w.w.w.",
"t.w.w.w.w.w.w.w.w.w.w.w.w.w.w.w.w.w.w.w.w.w.w.w.w.w.w.w.w.w.w.w.",
"t.w.w.w.w.w.w.w.w.w.w.w.w.w.w.w.w.w.w.w.w.w.w.w.w.w.w.w.w.w.w.w.",
"t.w.w.w.w.w.w.w.w.w.w.w.w.w.w.w.w.w.w.w.w.w.w.w.w.w.w.w.w.w.w.w.",
"t.w.w.w.w.w.w.w.w.w.w.w.w.w.w.w.w.w.w.w.w.w.w.w.w.w.w.w.w.w.w.w."
};
