/* XPM */
static char *_9df56615c8d4b4d9c2a02f52472b7b7tNOCeBysUh6FnpxT[] = {
/* columns rows colors chars-per-pixel */
"32 32 33 1 ",
"  c #78787B",
". c #747783",
"X c #7A7D8A",
"o c #7A7D8B",
"O c #767885",
"+ c #707177",
"@ c #78787A",
"# c #D6D9DA",
"$ c #B6BFB7",
"% c #AEB8AF",
"& c #B1B9B4",
"* c #9CA0A5",
"= c #797D86",
"- c #797E86",
"; c #465E51",
": c #355257",
"> c #3C585E",
", c #4C666E",
"< c #4B656E",
"1 c #3C7A8E",
"2 c #3E7E91",
"3 c #3D7D90",
"4 c #7A7C8A",
"5 c #AFB9B0",
"6 c #365359",
"7 c #418394",
"8 c #6F717A",
"9 c #ACB1B3",
"0 c #48626A",
"q c #3D7E90",
"w c #767679",
"e c #80848D",
"r c white",
/* pixels */
" .XoO+@@@@@@@@@@@@@@@@@@@@@@@@@@",
".#$%&*=-------------------------",
"X$;:>,<<<<<<<<<<<<<<<<<<<<<<<<<<",
"X%:12333333333333333333333333333",
"45627777777777777777777777777777",
"890q7777777777777777777777777777",
"we,37777777777777777777777777777",
"@=<37777777777777777777777777777",
"@-<37777777777777777777777777777",
"@-<37777777777777777777777777777",
"@-<37777777777777777777777777777",
"@-<37777777777777777777777777777",
"@-<37777777777777777777777777777",
"@-<37777777777777777777777777777",
"@-<37777777777777777777777777777",
"@-<37777777777777777777777777777",
"@-<37777777777777777777777777777",
"@-<37777777777777777777777777777",
"@-<37777777777777777777777777777",
"@-<37777777777777777777777777777",
"@-<37777777777777777777777777777",
"@-<37777777777777777777777777777",
"@-<37777777777777777777777777777",
"@-<37777777777777777777777777777",
"@=<37777777777777777777777777777",
"we,37777777777777777777777777777",
"890q7777777777777777777777777777",
"45627777777777777777777777777777",
"X%:12333333333333333333333333333",
"X$;:>,<<<<<<<<<<<<<<<<<<<<<<<<<<",
".#$%&*=-------------------------",
" .XoO+@@@@@@@@@@@@@@@@@@@@@@@@@@"
};
