/* XPM */
static char *_c7daa00281046bfd40240594614416bZV1jT0MoDLFpcIoO[] = {
/* columns rows colors chars-per-pixel */
"32 32 33 1 ",
"  c #78787A",
". c #707177",
"X c #767885",
"o c #7A7D8B",
"O c #7A7D8A",
"+ c #747783",
"@ c #78787B",
"# c #797E86",
"$ c #797D86",
"% c #9CA0A5",
"& c #B1B9B4",
"* c #AEB8AF",
"= c #B6BFB7",
"- c #D6D9DA",
"; c #4B656E",
": c #4C666E",
"> c #3C585E",
", c #355257",
"< c #465E51",
"1 c #3D7D90",
"2 c #3E7E91",
"3 c #3C7A8E",
"4 c #418394",
"5 c #365359",
"6 c #AFB9B0",
"7 c #7A7C8A",
"8 c #3D7E90",
"9 c #48626A",
"0 c #ACB1B3",
"q c #6F717A",
"w c #80848D",
"e c #767679",
"r c white",
/* pixels */
"                          .XoO+@",
"#########################$%&*=-+",
";;;;;;;;;;;;;;;;;;;;;;;;;;:>,<=O",
"11111111111111111111111111123,*O",
"44444444444444444444444444442567",
"4444444444444444444444444444890q",
"44444444444444444444444444441:we",
"44444444444444444444444444441;$ ",
"44444444444444444444444444441;# ",
"44444444444444444444444444441;# ",
"44444444444444444444444444441;# ",
"44444444444444444444444444441;# ",
"44444444444444444444444444441;# ",
"44444444444444444444444444441;# ",
"44444444444444444444444444441;# ",
"44444444444444444444444444441;# ",
"44444444444444444444444444441;# ",
"44444444444444444444444444441;# ",
"44444444444444444444444444441;# ",
"44444444444444444444444444441;# ",
"44444444444444444444444444441;# ",
"44444444444444444444444444441;# ",
"44444444444444444444444444441;# ",
"44444444444444444444444444441;# ",
"44444444444444444444444444441;$ ",
"44444444444444444444444444441:we",
"4444444444444444444444444444890q",
"44444444444444444444444444442567",
"11111111111111111111111111123,*O",
";;;;;;;;;;;;;;;;;;;;;;;;;;:>,<=O",
"#########################$%&*=-+",
"                          .XoO+@"
};
